<svg xmlns="http://www.w3.org/2000/svg" viewBox="0 0 64 64">
  <!-- Lime background — matches site accent (#d8ff26) -->
  <rect width="64" height="64" rx="8" ry="8" fill="#d8ff26"/>
  <!-- Glyph paths extracted from Fraunces (italic, weight 700) so the
       favicon matches the logo regardless of system fonts. Path data is
       in font units (Y-up, upem=2000); the parent <g> flips Y, scales,
       and centers the "S." horizontally + vertically in the 64x64 box. -->
  <g transform="translate(3.34 54.21) scale(0.03164 -0.03164)" fill="#15170f">
    <path d="M614 -25Q529 -25 471.5 -8.5Q414 8 378.0 29.5Q342 51 320.0 67.5Q298 84 283 84Q269 84 249.5 69.0Q230 54 207.5 34.0Q185 14 162.5 -1.5Q140 -17 118 -17Q84 -17 67.0 1.5Q50 20 53 60L97 414Q100 456 119.0 478.5Q138 501 168 501Q197 501 215.0 481.0Q233 461 250 422L278 304Q303 204 374.5 152.0Q446 100 539 100Q594 100 634.5 119.0Q675 138 700.0 173.0Q725 208 732 254Q747 335 701.5 408.0Q656 481 525 560Q371 653 307.5 755.5Q244 858 260 996Q273 1113 342.5 1211.5Q412 1310 537.0 1369.5Q662 1429 841 1429Q996 1429 1101.5 1380.0Q1207 1331 1259.5 1253.5Q1312 1176 1308 1092Q1304 1025 1269.5 981.0Q1235 937 1172 937Q1123 937 1091.5 965.0Q1060 993 1038 1059L1016 1142Q992 1231 941.5 1274.0Q891 1317 820 1317Q757 1317 710.0 1291.0Q663 1265 635.0 1221.5Q607 1178 600 1123Q588 1037 633.0 964.5Q678 892 802 811Q931 727 999.0 652.5Q1067 578 1089.5 501.5Q1112 425 1102 337Q1091 231 1026.5 149.5Q962 68 856.0 21.5Q750 -25 614 -25Z"/>
    <path transform="translate(1228 0)" d="M204 -20Q115 -20 67.5 23.0Q20 66 22 131Q23 185 56.0 231.0Q89 277 149.0 305.5Q209 334 290 334Q380 334 423.0 289.5Q466 245 464 177Q462 125 430.0 80.0Q398 35 340.0 7.5Q282 -20 204 -20Z"/>
  </g>
</svg>
