<svg xmlns="http://www.w3.org/2000/svg" viewBox="0 0 64 64">
  <!-- Lime background — matches site accent (#d8ff26) -->
  <rect width="64" height="64" rx="8" ry="8" fill="#d8ff26"/>
  <!-- Glyph paths extracted from Fraunces (italic, weight 500) — lighter
       than the previous 700 cut. Paths are in font units (Y-up, upem=2000);
       the parent <g> flips Y, scales, and centers the "S." in the box. -->
  <g transform="translate(5.6 54.3) scale(0.0318 -0.0318)" fill="#15170f">
    <path d="M562 -23Q475 -23 417.5 -6.5Q360 10 325.0 32.0Q290 54 270.0 70.5Q250 87 237 87Q225 87 210.0 71.5Q195 56 177.5 36.0Q160 16 142.5 0.5Q125 -15 108 -15Q82 -15 69.0 -0.5Q56 14 59 44L101 392Q104 424 118.5 440.5Q133 457 156 457Q178 457 191.5 441.5Q205 426 216 397L234 303Q250 188 326.5 128.5Q403 69 512 69Q581 69 634.0 94.0Q687 119 720.0 164.5Q753 210 762 271Q778 359 733.0 434.0Q688 509 555 594Q405 690 342.0 788.0Q279 886 294 1017Q307 1125 371.0 1218.0Q435 1311 550.5 1368.0Q666 1425 829 1425Q969 1425 1064.0 1380.5Q1159 1336 1207.5 1265.5Q1256 1195 1253 1117Q1251 1066 1224.5 1032.0Q1198 998 1153 998Q1114 998 1090.5 1020.0Q1067 1042 1051 1089L1032 1161Q1009 1252 952.5 1297.0Q896 1342 813 1342Q732 1342 672.0 1310.5Q612 1279 576.5 1227.0Q541 1175 533 1110Q519 1016 568.5 938.5Q618 861 746 772Q863 694 925.5 625.0Q988 556 1009.5 485.5Q1031 415 1021 334Q1011 227 950.0 146.5Q889 66 789.0 21.5Q689 -23 562 -23Z"/>
    <path transform="translate(1166 0)" d="M166 -17Q98 -17 62.5 18.5Q27 54 31 107Q35 149 61.0 185.0Q87 221 132.5 242.5Q178 264 237 264Q306 264 338.5 227.5Q371 191 366 136Q363 95 337.0 60.0Q311 25 267.0 4.0Q223 -17 166 -17Z"/>
  </g>
</svg>
